<mxfile host="app.diagrams.net" modified="2024-04-20T14:25:01.471Z" agent="Mozilla/5.0 (Windows NT 10.0; Win64; x64) AppleWebKit/537.36 (KHTML, like Gecko) Chrome/123.0.0.0 Safari/537.36" etag="zWEUCOTDyY4D9BNybI4j" version="24.2.7" type="device">
  <diagram name="Stránka-1" id="QTfIzcKnOUus8HyTwjOm">
    <mxGraphModel dx="1674" dy="772" grid="1" gridSize="10" guides="1" tooltips="1" connect="1" arrows="1" fold="1" page="1" pageScale="1" pageWidth="850" pageHeight="1100" math="0" shadow="0">
      <root>
        <mxCell id="0" />
        <mxCell id="1" parent="0" />
        <mxCell id="Bw3VtWo-_IWqsyjpGnRu-15" style="edgeStyle=orthogonalEdgeStyle;rounded=0;orthogonalLoop=1;jettySize=auto;html=1;entryX=0.5;entryY=0;entryDx=0;entryDy=0;" parent="1" source="Bw3VtWo-_IWqsyjpGnRu-1" target="Bw3VtWo-_IWqsyjpGnRu-4" edge="1">
          <mxGeometry relative="1" as="geometry">
            <Array as="points">
              <mxPoint x="548" y="320" />
            </Array>
          </mxGeometry>
        </mxCell>
        <mxCell id="Bw3VtWo-_IWqsyjpGnRu-17" style="edgeStyle=orthogonalEdgeStyle;rounded=0;orthogonalLoop=1;jettySize=auto;html=1;entryX=0.5;entryY=0;entryDx=0;entryDy=0;" parent="1" source="Bw3VtWo-_IWqsyjpGnRu-1" target="Bw3VtWo-_IWqsyjpGnRu-2" edge="1">
          <mxGeometry relative="1" as="geometry">
            <Array as="points">
              <mxPoint x="303" y="320" />
            </Array>
          </mxGeometry>
        </mxCell>
        <mxCell id="Bw3VtWo-_IWqsyjpGnRu-1" value="&lt;font face=&quot;Times New Roman&quot; style=&quot;font-size: 18px;&quot;&gt;&lt;b&gt;&lt;i&gt;Inner Shadows&lt;/i&gt;&lt;/b&gt;&lt;/font&gt;" style="rounded=0;whiteSpace=wrap;html=1;fillColor=#FF9933;" parent="1" vertex="1">
          <mxGeometry x="363" y="290" width="125" height="60" as="geometry" />
        </mxCell>
        <mxCell id="Bw3VtWo-_IWqsyjpGnRu-2" value="&lt;font style=&quot;font-size: 12px;&quot;&gt;Unity prostředí&lt;/font&gt;" style="rounded=0;whiteSpace=wrap;html=1;fillColor=#CCCCCC;" parent="1" vertex="1">
          <mxGeometry x="243" y="390" width="120" height="60" as="geometry" />
        </mxCell>
        <mxCell id="Bw3VtWo-_IWqsyjpGnRu-3" value="&lt;font style=&quot;font-size: 12px;&quot;&gt;Herní prostředí&lt;/font&gt;" style="rounded=0;whiteSpace=wrap;html=1;" parent="1" vertex="1">
          <mxGeometry x="380" y="500" width="120" height="60" as="geometry" />
        </mxCell>
        <mxCell id="Bw3VtWo-_IWqsyjpGnRu-11" style="edgeStyle=orthogonalEdgeStyle;rounded=0;orthogonalLoop=1;jettySize=auto;html=1;entryX=1;entryY=0.5;entryDx=0;entryDy=0;" parent="1" source="Bw3VtWo-_IWqsyjpGnRu-4" target="Bw3VtWo-_IWqsyjpGnRu-3" edge="1">
          <mxGeometry relative="1" as="geometry" />
        </mxCell>
        <mxCell id="Bw3VtWo-_IWqsyjpGnRu-12" style="edgeStyle=orthogonalEdgeStyle;rounded=0;orthogonalLoop=1;jettySize=auto;html=1;entryX=0;entryY=0.5;entryDx=0;entryDy=0;" parent="1" source="Bw3VtWo-_IWqsyjpGnRu-4" target="Bw3VtWo-_IWqsyjpGnRu-5" edge="1">
          <mxGeometry relative="1" as="geometry" />
        </mxCell>
        <mxCell id="Bw3VtWo-_IWqsyjpGnRu-13" style="edgeStyle=orthogonalEdgeStyle;rounded=0;orthogonalLoop=1;jettySize=auto;html=1;entryX=1;entryY=0.5;entryDx=0;entryDy=0;" parent="1" source="Bw3VtWo-_IWqsyjpGnRu-4" target="Bw3VtWo-_IWqsyjpGnRu-9" edge="1">
          <mxGeometry relative="1" as="geometry" />
        </mxCell>
        <mxCell id="Bw3VtWo-_IWqsyjpGnRu-14" style="edgeStyle=orthogonalEdgeStyle;rounded=0;orthogonalLoop=1;jettySize=auto;html=1;entryX=0;entryY=0.5;entryDx=0;entryDy=0;" parent="1" source="Bw3VtWo-_IWqsyjpGnRu-4" target="Bw3VtWo-_IWqsyjpGnRu-8" edge="1">
          <mxGeometry relative="1" as="geometry" />
        </mxCell>
        <mxCell id="Bw3VtWo-_IWqsyjpGnRu-20" style="edgeStyle=orthogonalEdgeStyle;rounded=0;orthogonalLoop=1;jettySize=auto;html=1;entryX=1;entryY=0.5;entryDx=0;entryDy=0;" parent="1" source="Bw3VtWo-_IWqsyjpGnRu-4" target="Bw3VtWo-_IWqsyjpGnRu-19" edge="1">
          <mxGeometry relative="1" as="geometry" />
        </mxCell>
        <mxCell id="Bw3VtWo-_IWqsyjpGnRu-21" style="edgeStyle=orthogonalEdgeStyle;rounded=0;orthogonalLoop=1;jettySize=auto;html=1;entryX=0;entryY=0.5;entryDx=0;entryDy=0;" parent="1" source="Bw3VtWo-_IWqsyjpGnRu-4" target="Bw3VtWo-_IWqsyjpGnRu-18" edge="1">
          <mxGeometry relative="1" as="geometry" />
        </mxCell>
        <mxCell id="Bw3VtWo-_IWqsyjpGnRu-4" value="&lt;font style=&quot;font-size: 12px;&quot;&gt;Implementace&lt;/font&gt;" style="rounded=0;whiteSpace=wrap;html=1;fillColor=#CCCCCC;" parent="1" vertex="1">
          <mxGeometry x="488" y="390" width="120" height="60" as="geometry" />
        </mxCell>
        <mxCell id="Bw3VtWo-_IWqsyjpGnRu-5" value="&lt;font style=&quot;font-size: 12px;&quot;&gt;GUI&lt;/font&gt;" style="rounded=0;whiteSpace=wrap;html=1;fillColor=#EA6B66;" parent="1" vertex="1">
          <mxGeometry x="594.5" y="500" width="120" height="60" as="geometry" />
        </mxCell>
        <mxCell id="Bw3VtWo-_IWqsyjpGnRu-8" value="&lt;font style=&quot;font-size: 12px;&quot;&gt;Hlavní postava&lt;/font&gt;" style="rounded=0;whiteSpace=wrap;html=1;" parent="1" vertex="1">
          <mxGeometry x="594.5" y="590" width="120" height="60" as="geometry" />
        </mxCell>
        <mxCell id="Bw3VtWo-_IWqsyjpGnRu-9" value="&lt;font style=&quot;font-size: 12px;&quot;&gt;Algoritmy pro herní mechaniky&lt;/font&gt;" style="rounded=0;whiteSpace=wrap;html=1;" parent="1" vertex="1">
          <mxGeometry x="380" y="590" width="120" height="60" as="geometry" />
        </mxCell>
        <mxCell id="Bw3VtWo-_IWqsyjpGnRu-18" value="&lt;font style=&quot;font-size: 12px;&quot;&gt;Nepřátelé&lt;/font&gt;" style="rounded=0;whiteSpace=wrap;html=1;" parent="1" vertex="1">
          <mxGeometry x="594.5" y="680" width="120" height="60" as="geometry" />
        </mxCell>
        <mxCell id="Bw3VtWo-_IWqsyjpGnRu-19" value="&lt;font style=&quot;font-size: 12px;&quot;&gt;Miniboss&lt;/font&gt;" style="rounded=0;whiteSpace=wrap;html=1;" parent="1" vertex="1">
          <mxGeometry x="380" y="680" width="120" height="60" as="geometry" />
        </mxCell>
      </root>
    </mxGraphModel>
  </diagram>
</mxfile>
